<mxfile host="Electron" modified="2024-06-19T11:31:27.159Z" agent="Mozilla/5.0 (Windows NT 10.0; Win64; x64) AppleWebKit/537.36 (KHTML, like Gecko) draw.io/22.1.2 Chrome/114.0.5735.289 Electron/25.9.4 Safari/537.36" etag="QDWX60pSpcdN5Y4hGIMO" version="22.1.2" type="device">
  <diagram name="Page-1" id="-_iU4Y6na3LqdlgO_fB7">
    <mxGraphModel dx="2736" dy="614" grid="1" gridSize="10" guides="1" tooltips="1" connect="1" arrows="1" fold="1" page="1" pageScale="1" pageWidth="850" pageHeight="1100" math="0" shadow="0">
      <root>
        <mxCell id="0" />
        <mxCell id="1" parent="0" />
        <mxCell id="2ueXuzkVVdpaLfFHCJSz-3" value="«Component»&lt;br&gt;&lt;b&gt;Tempera&lt;/b&gt;" style="html=1;dropTarget=0;whiteSpace=wrap;" parent="1" vertex="1">
          <mxGeometry x="-190" y="260" width="180" height="90" as="geometry" />
        </mxCell>
        <mxCell id="2ueXuzkVVdpaLfFHCJSz-4" value="" style="shape=module;jettyWidth=8;jettyHeight=4;" parent="2ueXuzkVVdpaLfFHCJSz-3" vertex="1">
          <mxGeometry x="1" width="20" height="20" relative="1" as="geometry">
            <mxPoint x="-27" y="7" as="offset" />
          </mxGeometry>
        </mxCell>
        <mxCell id="2ueXuzkVVdpaLfFHCJSz-5" value="«Component»&lt;br&gt;&lt;b&gt;Accesspoint&lt;/b&gt;" style="html=1;dropTarget=0;whiteSpace=wrap;" parent="1" vertex="1">
          <mxGeometry x="100" y="260" width="180" height="90" as="geometry" />
        </mxCell>
        <mxCell id="2ueXuzkVVdpaLfFHCJSz-6" value="" style="shape=module;jettyWidth=8;jettyHeight=4;" parent="2ueXuzkVVdpaLfFHCJSz-5" vertex="1">
          <mxGeometry x="1" width="20" height="20" relative="1" as="geometry">
            <mxPoint x="-27" y="7" as="offset" />
          </mxGeometry>
        </mxCell>
        <mxCell id="2ueXuzkVVdpaLfFHCJSz-7" value="«Component»&lt;br&gt;&lt;b&gt;WebApplication&lt;/b&gt;" style="html=1;dropTarget=0;whiteSpace=wrap;" parent="1" vertex="1">
          <mxGeometry x="390" y="260" width="180" height="90" as="geometry" />
        </mxCell>
        <mxCell id="2ueXuzkVVdpaLfFHCJSz-8" value="" style="shape=module;jettyWidth=8;jettyHeight=4;" parent="2ueXuzkVVdpaLfFHCJSz-7" vertex="1">
          <mxGeometry x="1" width="20" height="20" relative="1" as="geometry">
            <mxPoint x="-27" y="7" as="offset" />
          </mxGeometry>
        </mxCell>
        <mxCell id="2ueXuzkVVdpaLfFHCJSz-9" value="«Component»&lt;br&gt;&lt;b&gt;Database&lt;/b&gt;" style="html=1;dropTarget=0;whiteSpace=wrap;" parent="1" vertex="1">
          <mxGeometry x="650" y="260" width="180" height="90" as="geometry" />
        </mxCell>
        <mxCell id="2ueXuzkVVdpaLfFHCJSz-10" value="" style="shape=module;jettyWidth=8;jettyHeight=4;" parent="2ueXuzkVVdpaLfFHCJSz-9" vertex="1">
          <mxGeometry x="1" width="20" height="20" relative="1" as="geometry">
            <mxPoint x="-27" y="7" as="offset" />
          </mxGeometry>
        </mxCell>
        <mxCell id="2ueXuzkVVdpaLfFHCJSz-15" value="" style="ellipse;whiteSpace=wrap;html=1;align=center;aspect=fixed;fillColor=none;strokeColor=none;resizable=0;perimeter=centerPerimeter;rotatable=0;allowArrows=0;points=[];outlineConnect=1;" parent="1" vertex="1">
          <mxGeometry x="40" y="300" width="10" height="10" as="geometry" />
        </mxCell>
        <mxCell id="2ueXuzkVVdpaLfFHCJSz-16" value="" style="html=1;verticalLabelPosition=bottom;align=center;labelBackgroundColor=#ffffff;verticalAlign=top;strokeWidth=2;strokeColor=#0080F0;shadow=0;dashed=0;shape=mxgraph.ios7.icons.bluetooth;pointerEvents=1" parent="1" vertex="1">
          <mxGeometry x="40" y="270" width="10.42" height="20" as="geometry" />
        </mxCell>
        <mxCell id="2ueXuzkVVdpaLfFHCJSz-25" value="" style="sketch=0;pointerEvents=1;shadow=0;dashed=0;html=1;strokeColor=none;fillColor=#434445;aspect=fixed;labelPosition=center;verticalLabelPosition=bottom;verticalAlign=top;align=center;outlineConnect=0;shape=mxgraph.vvd.wi_fi;" parent="1" vertex="1">
          <mxGeometry x="330" y="270" width="20" height="20" as="geometry" />
        </mxCell>
        <mxCell id="2ueXuzkVVdpaLfFHCJSz-30" value="WebApplication" style="shape=umlFrame;whiteSpace=wrap;html=1;pointerEvents=0;width=120;height=50;" parent="1" vertex="1">
          <mxGeometry x="-280" y="570" width="980" height="440" as="geometry" />
        </mxCell>
        <mxCell id="2ueXuzkVVdpaLfFHCJSz-31" value="«Component»&lt;br&gt;&lt;b&gt;configs&lt;/b&gt;" style="html=1;dropTarget=0;whiteSpace=wrap;" parent="1" vertex="1">
          <mxGeometry x="-160" y="750" width="120" height="80" as="geometry" />
        </mxCell>
        <mxCell id="2ueXuzkVVdpaLfFHCJSz-32" value="" style="shape=module;jettyWidth=8;jettyHeight=4;" parent="2ueXuzkVVdpaLfFHCJSz-31" vertex="1">
          <mxGeometry x="1" width="20" height="20" relative="1" as="geometry">
            <mxPoint x="-27" y="7" as="offset" />
          </mxGeometry>
        </mxCell>
        <mxCell id="2ueXuzkVVdpaLfFHCJSz-33" value="«Component»&lt;br&gt;&lt;b&gt;model&lt;/b&gt;" style="html=1;dropTarget=0;whiteSpace=wrap;" parent="1" vertex="1">
          <mxGeometry x="370" y="745" width="180" height="90" as="geometry" />
        </mxCell>
        <mxCell id="2ueXuzkVVdpaLfFHCJSz-34" value="" style="shape=module;jettyWidth=8;jettyHeight=4;" parent="2ueXuzkVVdpaLfFHCJSz-33" vertex="1">
          <mxGeometry x="1" width="20" height="20" relative="1" as="geometry">
            <mxPoint x="-27" y="7" as="offset" />
          </mxGeometry>
        </mxCell>
        <mxCell id="2ueXuzkVVdpaLfFHCJSz-42" style="edgeStyle=orthogonalEdgeStyle;rounded=0;orthogonalLoop=1;jettySize=auto;html=1;exitX=1;exitY=0.5;exitDx=0;exitDy=0;entryX=0;entryY=0.75;entryDx=0;entryDy=0;" parent="1" source="2ueXuzkVVdpaLfFHCJSz-35" target="2ueXuzkVVdpaLfFHCJSz-33" edge="1">
          <mxGeometry relative="1" as="geometry" />
        </mxCell>
        <mxCell id="2ueXuzkVVdpaLfFHCJSz-57" style="edgeStyle=orthogonalEdgeStyle;rounded=0;orthogonalLoop=1;jettySize=auto;html=1;exitX=1;exitY=0.5;exitDx=0;exitDy=0;entryX=0;entryY=0.5;entryDx=0;entryDy=0;dashed=1;" parent="1" source="2ueXuzkVVdpaLfFHCJSz-35" target="2ueXuzkVVdpaLfFHCJSz-55" edge="1">
          <mxGeometry relative="1" as="geometry" />
        </mxCell>
        <mxCell id="2ueXuzkVVdpaLfFHCJSz-35" value="«Component»&lt;br&gt;&lt;b&gt;repositories&lt;/b&gt;" style="html=1;dropTarget=0;whiteSpace=wrap;" parent="1" vertex="1">
          <mxGeometry x="80" y="860" width="180" height="90" as="geometry" />
        </mxCell>
        <mxCell id="2ueXuzkVVdpaLfFHCJSz-36" value="" style="shape=module;jettyWidth=8;jettyHeight=4;" parent="2ueXuzkVVdpaLfFHCJSz-35" vertex="1">
          <mxGeometry x="1" width="20" height="20" relative="1" as="geometry">
            <mxPoint x="-27" y="7" as="offset" />
          </mxGeometry>
        </mxCell>
        <mxCell id="2ueXuzkVVdpaLfFHCJSz-43" style="edgeStyle=orthogonalEdgeStyle;rounded=0;orthogonalLoop=1;jettySize=auto;html=1;exitX=1;exitY=0.5;exitDx=0;exitDy=0;entryX=0;entryY=0.5;entryDx=0;entryDy=0;" parent="1" source="2ueXuzkVVdpaLfFHCJSz-37" target="2ueXuzkVVdpaLfFHCJSz-33" edge="1">
          <mxGeometry relative="1" as="geometry" />
        </mxCell>
        <mxCell id="2ueXuzkVVdpaLfFHCJSz-47" style="edgeStyle=orthogonalEdgeStyle;rounded=0;orthogonalLoop=1;jettySize=auto;html=1;exitX=0;exitY=0.5;exitDx=0;exitDy=0;entryX=1;entryY=0.5;entryDx=0;entryDy=0;" parent="1" source="2ueXuzkVVdpaLfFHCJSz-37" target="2ueXuzkVVdpaLfFHCJSz-31" edge="1">
          <mxGeometry relative="1" as="geometry" />
        </mxCell>
        <mxCell id="_oMGjZyMMdvzyB5BD8xu-24" style="edgeStyle=orthogonalEdgeStyle;rounded=0;orthogonalLoop=1;jettySize=auto;html=1;exitX=0.5;exitY=1;exitDx=0;exitDy=0;entryX=0.5;entryY=0;entryDx=0;entryDy=0;" parent="1" source="2ueXuzkVVdpaLfFHCJSz-37" target="2ueXuzkVVdpaLfFHCJSz-35" edge="1">
          <mxGeometry relative="1" as="geometry" />
        </mxCell>
        <mxCell id="2ueXuzkVVdpaLfFHCJSz-37" value="«Component»&lt;br&gt;&lt;b&gt;services&lt;/b&gt;" style="html=1;dropTarget=0;whiteSpace=wrap;" parent="1" vertex="1">
          <mxGeometry x="80" y="745" width="180" height="90" as="geometry" />
        </mxCell>
        <mxCell id="2ueXuzkVVdpaLfFHCJSz-38" value="" style="shape=module;jettyWidth=8;jettyHeight=4;" parent="2ueXuzkVVdpaLfFHCJSz-37" vertex="1">
          <mxGeometry x="1" width="20" height="20" relative="1" as="geometry">
            <mxPoint x="-27" y="7" as="offset" />
          </mxGeometry>
        </mxCell>
        <mxCell id="2ueXuzkVVdpaLfFHCJSz-44" style="edgeStyle=orthogonalEdgeStyle;rounded=0;orthogonalLoop=1;jettySize=auto;html=1;exitX=1;exitY=0.5;exitDx=0;exitDy=0;entryX=0;entryY=0.25;entryDx=0;entryDy=0;" parent="1" source="2ueXuzkVVdpaLfFHCJSz-39" target="2ueXuzkVVdpaLfFHCJSz-33" edge="1">
          <mxGeometry relative="1" as="geometry" />
        </mxCell>
        <mxCell id="2ueXuzkVVdpaLfFHCJSz-46" style="edgeStyle=orthogonalEdgeStyle;rounded=0;orthogonalLoop=1;jettySize=auto;html=1;exitX=0;exitY=0.5;exitDx=0;exitDy=0;entryX=1;entryY=0.5;entryDx=0;entryDy=0;" parent="1" source="2ueXuzkVVdpaLfFHCJSz-39" target="2ueXuzkVVdpaLfFHCJSz-31" edge="1">
          <mxGeometry relative="1" as="geometry" />
        </mxCell>
        <mxCell id="_oMGjZyMMdvzyB5BD8xu-23" style="edgeStyle=orthogonalEdgeStyle;rounded=0;orthogonalLoop=1;jettySize=auto;html=1;exitX=0.5;exitY=1;exitDx=0;exitDy=0;entryX=0.5;entryY=0;entryDx=0;entryDy=0;" parent="1" source="2ueXuzkVVdpaLfFHCJSz-39" target="2ueXuzkVVdpaLfFHCJSz-37" edge="1">
          <mxGeometry relative="1" as="geometry" />
        </mxCell>
        <mxCell id="2ueXuzkVVdpaLfFHCJSz-39" value="«Component»&lt;br&gt;&lt;b&gt;ui&lt;/b&gt;" style="html=1;dropTarget=0;whiteSpace=wrap;" parent="1" vertex="1">
          <mxGeometry x="80" y="630" width="180" height="90" as="geometry" />
        </mxCell>
        <mxCell id="2ueXuzkVVdpaLfFHCJSz-40" value="" style="shape=module;jettyWidth=8;jettyHeight=4;" parent="2ueXuzkVVdpaLfFHCJSz-39" vertex="1">
          <mxGeometry x="1" width="20" height="20" relative="1" as="geometry">
            <mxPoint x="-27" y="7" as="offset" />
          </mxGeometry>
        </mxCell>
        <mxCell id="2ueXuzkVVdpaLfFHCJSz-55" value="&lt;b&gt;Data-base&lt;/b&gt;" style="whiteSpace=wrap;html=1;aspect=fixed;" parent="1" vertex="1">
          <mxGeometry x="680" y="885" width="40" height="40" as="geometry" />
        </mxCell>
        <mxCell id="2ueXuzkVVdpaLfFHCJSz-58" value="services" style="shape=umlFrame;whiteSpace=wrap;html=1;pointerEvents=0;width=120;height=50;" parent="1" vertex="1">
          <mxGeometry x="-1210" y="1282" width="840" height="590" as="geometry" />
        </mxCell>
        <mxCell id="2ueXuzkVVdpaLfFHCJSz-73" style="edgeStyle=orthogonalEdgeStyle;rounded=0;orthogonalLoop=1;jettySize=auto;html=1;exitX=0.5;exitY=1;exitDx=0;exitDy=0;entryX=0.5;entryY=0;entryDx=0;entryDy=0;dashed=1;" parent="1" source="YkOPoZIDvHqunzeJs5bv-24" target="2ueXuzkVVdpaLfFHCJSz-72" edge="1">
          <mxGeometry relative="1" as="geometry">
            <mxPoint x="-1661" y="1906.9999999999995" as="sourcePoint" />
          </mxGeometry>
        </mxCell>
        <mxCell id="2ueXuzkVVdpaLfFHCJSz-70" value="«Component»&lt;br&gt;&lt;b&gt;Room&lt;/b&gt;" style="html=1;dropTarget=0;whiteSpace=wrap;" parent="1" vertex="1">
          <mxGeometry x="-610" y="1335" width="180" height="90" as="geometry" />
        </mxCell>
        <mxCell id="2ueXuzkVVdpaLfFHCJSz-71" value="" style="shape=module;jettyWidth=8;jettyHeight=4;" parent="2ueXuzkVVdpaLfFHCJSz-70" vertex="1">
          <mxGeometry x="1" width="20" height="20" relative="1" as="geometry">
            <mxPoint x="-27" y="7" as="offset" />
          </mxGeometry>
        </mxCell>
        <mxCell id="2ueXuzkVVdpaLfFHCJSz-72" value="&lt;b&gt;E-Mail Server&lt;/b&gt;" style="whiteSpace=wrap;html=1;aspect=fixed;" parent="1" vertex="1">
          <mxGeometry x="-826" y="1850" width="40" height="40" as="geometry" />
        </mxCell>
        <mxCell id="YkOPoZIDvHqunzeJs5bv-29" style="edgeStyle=orthogonalEdgeStyle;rounded=0;orthogonalLoop=1;jettySize=auto;html=1;exitX=1;exitY=0.5;exitDx=0;exitDy=0;entryX=0;entryY=0.5;entryDx=0;entryDy=0;" parent="1" source="2ueXuzkVVdpaLfFHCJSz-85" target="2ueXuzkVVdpaLfFHCJSz-70" edge="1">
          <mxGeometry relative="1" as="geometry" />
        </mxCell>
        <mxCell id="YkOPoZIDvHqunzeJs5bv-32" style="edgeStyle=orthogonalEdgeStyle;rounded=0;orthogonalLoop=1;jettySize=auto;html=1;exitX=1;exitY=0.75;exitDx=0;exitDy=0;entryX=0;entryY=0.5;entryDx=0;entryDy=0;" parent="1" source="2ueXuzkVVdpaLfFHCJSz-85" target="YkOPoZIDvHqunzeJs5bv-13" edge="1">
          <mxGeometry relative="1" as="geometry" />
        </mxCell>
        <mxCell id="YkOPoZIDvHqunzeJs5bv-56" style="edgeStyle=orthogonalEdgeStyle;rounded=0;orthogonalLoop=1;jettySize=auto;html=1;exitX=0.25;exitY=1;exitDx=0;exitDy=0;entryX=0.25;entryY=0;entryDx=0;entryDy=0;startArrow=classic;startFill=1;" parent="1" source="2ueXuzkVVdpaLfFHCJSz-85" target="YkOPoZIDvHqunzeJs5bv-54" edge="1">
          <mxGeometry relative="1" as="geometry" />
        </mxCell>
        <mxCell id="YkOPoZIDvHqunzeJs5bv-67" style="edgeStyle=orthogonalEdgeStyle;rounded=0;orthogonalLoop=1;jettySize=auto;html=1;exitX=0;exitY=0.5;exitDx=0;exitDy=0;entryX=0.75;entryY=0;entryDx=0;entryDy=0;" parent="1" source="2ueXuzkVVdpaLfFHCJSz-85" target="YkOPoZIDvHqunzeJs5bv-59" edge="1">
          <mxGeometry relative="1" as="geometry" />
        </mxCell>
        <mxCell id="2ueXuzkVVdpaLfFHCJSz-85" value="«Component»&lt;br&gt;&lt;b&gt;Climate&lt;/b&gt;" style="html=1;dropTarget=0;whiteSpace=wrap;" parent="1" vertex="1">
          <mxGeometry x="-896" y="1335" width="180" height="90" as="geometry" />
        </mxCell>
        <mxCell id="2ueXuzkVVdpaLfFHCJSz-86" value="" style="shape=module;jettyWidth=8;jettyHeight=4;" parent="2ueXuzkVVdpaLfFHCJSz-85" vertex="1">
          <mxGeometry x="1" width="20" height="20" relative="1" as="geometry">
            <mxPoint x="-27" y="7" as="offset" />
          </mxGeometry>
        </mxCell>
        <mxCell id="YkOPoZIDvHqunzeJs5bv-17" style="edgeStyle=orthogonalEdgeStyle;rounded=0;orthogonalLoop=1;jettySize=auto;html=1;exitX=0.5;exitY=0;exitDx=0;exitDy=0;entryX=0.75;entryY=1;entryDx=0;entryDy=0;" parent="1" source="_oMGjZyMMdvzyB5BD8xu-39" target="2ueXuzkVVdpaLfFHCJSz-85" edge="1">
          <mxGeometry relative="1" as="geometry" />
        </mxCell>
        <mxCell id="_oMGjZyMMdvzyB5BD8xu-39" value="&lt;p style=&quot;margin:0px;margin-top:4px;text-align:center;&quot;&gt;&lt;b&gt;UserService&lt;/b&gt;&lt;/p&gt;&lt;hr size=&quot;1&quot;&gt;&lt;div style=&quot;height:2px;&quot;&gt;&lt;/div&gt;" style="verticalAlign=top;align=left;overflow=fill;fontSize=12;fontFamily=Helvetica;html=1;whiteSpace=wrap;" parent="1" vertex="1">
          <mxGeometry x="-831.5" y="1506" width="140" height="40" as="geometry" />
        </mxCell>
        <mxCell id="_oMGjZyMMdvzyB5BD8xu-43" value="Climate" style="shape=umlFrame;whiteSpace=wrap;html=1;pointerEvents=0;width=120;height=50;" parent="1" vertex="1">
          <mxGeometry x="-740" y="2320" width="550" height="290" as="geometry" />
        </mxCell>
        <mxCell id="YkOPoZIDvHqunzeJs5bv-3" style="edgeStyle=orthogonalEdgeStyle;rounded=0;orthogonalLoop=1;jettySize=auto;html=1;exitX=0.75;exitY=0;exitDx=0;exitDy=0;" parent="1" source="_oMGjZyMMdvzyB5BD8xu-44" target="_oMGjZyMMdvzyB5BD8xu-57" edge="1">
          <mxGeometry relative="1" as="geometry">
            <Array as="points">
              <mxPoint x="-466" y="2440" />
              <mxPoint x="-371" y="2440" />
            </Array>
          </mxGeometry>
        </mxCell>
        <mxCell id="YkOPoZIDvHqunzeJs5bv-4" style="edgeStyle=orthogonalEdgeStyle;rounded=0;orthogonalLoop=1;jettySize=auto;html=1;exitX=0.5;exitY=0;exitDx=0;exitDy=0;entryX=0.5;entryY=1;entryDx=0;entryDy=0;" parent="1" source="_oMGjZyMMdvzyB5BD8xu-44" target="zMEa8KZwkPsOpR2TD_1f-1" edge="1">
          <mxGeometry relative="1" as="geometry">
            <Array as="points">
              <mxPoint x="-501" y="2450" />
              <mxPoint x="-501" y="2450" />
            </Array>
          </mxGeometry>
        </mxCell>
        <mxCell id="YkOPoZIDvHqunzeJs5bv-5" style="edgeStyle=orthogonalEdgeStyle;rounded=0;orthogonalLoop=1;jettySize=auto;html=1;exitX=0;exitY=0.5;exitDx=0;exitDy=0;entryX=1;entryY=0.5;entryDx=0;entryDy=0;" parent="1" source="_oMGjZyMMdvzyB5BD8xu-44" target="YkOPoZIDvHqunzeJs5bv-73" edge="1">
          <mxGeometry relative="1" as="geometry">
            <mxPoint x="-702.5" y="2481" as="targetPoint" />
          </mxGeometry>
        </mxCell>
        <mxCell id="_oMGjZyMMdvzyB5BD8xu-44" value="&lt;p style=&quot;margin:0px;margin-top:4px;text-align:center;&quot;&gt;&lt;b&gt;WarningService&lt;/b&gt;&lt;/p&gt;&lt;hr size=&quot;1&quot;&gt;&lt;div style=&quot;height:2px;&quot;&gt;&lt;/div&gt;" style="verticalAlign=top;align=left;overflow=fill;fontSize=12;fontFamily=Helvetica;html=1;whiteSpace=wrap;" parent="1" vertex="1">
          <mxGeometry x="-571" y="2451" width="140" height="60" as="geometry" />
        </mxCell>
        <mxCell id="YkOPoZIDvHqunzeJs5bv-6" style="edgeStyle=orthogonalEdgeStyle;rounded=0;orthogonalLoop=1;jettySize=auto;html=1;exitX=0.5;exitY=0;exitDx=0;exitDy=0;entryX=0.75;entryY=1;entryDx=0;entryDy=0;" parent="1" source="_oMGjZyMMdvzyB5BD8xu-45" target="_oMGjZyMMdvzyB5BD8xu-57" edge="1">
          <mxGeometry relative="1" as="geometry" />
        </mxCell>
        <mxCell id="YkOPoZIDvHqunzeJs5bv-7" value="" style="edgeStyle=orthogonalEdgeStyle;rounded=0;orthogonalLoop=1;jettySize=auto;html=1;entryX=1;entryY=0.5;entryDx=0;entryDy=0;exitX=0;exitY=0.5;exitDx=0;exitDy=0;" parent="1" source="_oMGjZyMMdvzyB5BD8xu-45" target="_oMGjZyMMdvzyB5BD8xu-44" edge="1">
          <mxGeometry relative="1" as="geometry">
            <Array as="points">
              <mxPoint x="-401" y="2481" />
              <mxPoint x="-401" y="2481" />
            </Array>
          </mxGeometry>
        </mxCell>
        <mxCell id="YkOPoZIDvHqunzeJs5bv-9" value="" style="edgeStyle=orthogonalEdgeStyle;rounded=0;orthogonalLoop=1;jettySize=auto;html=1;" parent="1" source="_oMGjZyMMdvzyB5BD8xu-45" target="YkOPoZIDvHqunzeJs5bv-8" edge="1">
          <mxGeometry relative="1" as="geometry">
            <Array as="points">
              <mxPoint x="-291" y="2580" />
              <mxPoint x="-291" y="2580" />
            </Array>
          </mxGeometry>
        </mxCell>
        <mxCell id="_oMGjZyMMdvzyB5BD8xu-45" value="&lt;p style=&quot;margin:0px;margin-top:4px;text-align:center;&quot;&gt;&lt;b&gt;ClimateMeasurementService&lt;/b&gt;&lt;/p&gt;&lt;hr size=&quot;1&quot;&gt;&lt;div style=&quot;height:2px;&quot;&gt;&lt;/div&gt;" style="verticalAlign=top;align=left;overflow=fill;fontSize=12;fontFamily=Helvetica;html=1;whiteSpace=wrap;" parent="1" vertex="1">
          <mxGeometry x="-386" y="2451" width="190" height="60" as="geometry" />
        </mxCell>
        <mxCell id="_oMGjZyMMdvzyB5BD8xu-52" value="Room" style="shape=umlFrame;whiteSpace=wrap;html=1;pointerEvents=0;width=120;height=50;" parent="1" vertex="1">
          <mxGeometry x="-1400" y="2340" width="462" height="240" as="geometry" />
        </mxCell>
        <mxCell id="_oMGjZyMMdvzyB5BD8xu-53" value="&lt;p style=&quot;margin:0px;margin-top:4px;text-align:center;&quot;&gt;&lt;b&gt;LimitService&lt;/b&gt;&lt;/p&gt;&lt;hr size=&quot;1&quot;&gt;&lt;div style=&quot;height:2px;&quot;&gt;&lt;/div&gt;" style="verticalAlign=top;align=left;overflow=fill;fontSize=12;fontFamily=Helvetica;html=1;whiteSpace=wrap;" parent="1" vertex="1">
          <mxGeometry x="-1340" y="2420" width="130" height="50" as="geometry" />
        </mxCell>
        <mxCell id="_oMGjZyMMdvzyB5BD8xu-54" value="&lt;p style=&quot;margin:0px;margin-top:4px;text-align:center;&quot;&gt;&lt;b&gt;RoomService&lt;/b&gt;&lt;/p&gt;&lt;hr size=&quot;1&quot;&gt;&lt;div style=&quot;height:2px;&quot;&gt;&lt;/div&gt;" style="verticalAlign=top;align=left;overflow=fill;fontSize=12;fontFamily=Helvetica;html=1;whiteSpace=wrap;" parent="1" vertex="1">
          <mxGeometry x="-1111" y="2420" width="130" height="50" as="geometry" />
        </mxCell>
        <mxCell id="_oMGjZyMMdvzyB5BD8xu-57" value="&lt;p style=&quot;margin:0px;margin-top:4px;text-align:center;&quot;&gt;&lt;b&gt;TemperaDeviceService&lt;/b&gt;&lt;/p&gt;&lt;hr size=&quot;1&quot;&gt;&lt;div style=&quot;height:2px;&quot;&gt;&lt;/div&gt;" style="verticalAlign=top;align=left;overflow=fill;fontSize=12;fontFamily=Helvetica;html=1;whiteSpace=wrap;" parent="1" vertex="1">
          <mxGeometry x="-396" y="2300" width="140" height="40" as="geometry" />
        </mxCell>
        <mxCell id="_oMGjZyMMdvzyB5BD8xu-63" style="edgeStyle=orthogonalEdgeStyle;rounded=0;orthogonalLoop=1;jettySize=auto;html=1;entryX=1;entryY=0.5;entryDx=0;entryDy=0;exitX=0;exitY=0.5;exitDx=0;exitDy=0;" parent="1" source="_oMGjZyMMdvzyB5BD8xu-54" target="_oMGjZyMMdvzyB5BD8xu-53" edge="1">
          <mxGeometry relative="1" as="geometry">
            <mxPoint x="-1140" y="2265" as="sourcePoint" />
            <Array as="points">
              <mxPoint x="-1120" y="2445" />
              <mxPoint x="-1120" y="2445" />
            </Array>
          </mxGeometry>
        </mxCell>
        <mxCell id="_oMGjZyMMdvzyB5BD8xu-65" value="TimeTracking" style="shape=umlFrame;whiteSpace=wrap;html=1;pointerEvents=0;width=120;height=50;" parent="1" vertex="1">
          <mxGeometry x="-674" y="1960" width="450" height="260" as="geometry" />
        </mxCell>
        <mxCell id="_oMGjZyMMdvzyB5BD8xu-66" value="&lt;p style=&quot;margin:0px;margin-top:4px;text-align:center;&quot;&gt;&lt;b&gt;WorkGroupService&lt;/b&gt;&lt;/p&gt;&lt;hr size=&quot;1&quot;&gt;&lt;div style=&quot;height:2px;&quot;&gt;&lt;/div&gt;" style="verticalAlign=top;align=left;overflow=fill;fontSize=12;fontFamily=Helvetica;html=1;whiteSpace=wrap;" parent="1" vertex="1">
          <mxGeometry x="-631.5" y="2110" width="140" height="40" as="geometry" />
        </mxCell>
        <mxCell id="_oMGjZyMMdvzyB5BD8xu-67" value="&lt;p style=&quot;margin:0px;margin-top:4px;text-align:center;&quot;&gt;&lt;b&gt;ProjectService&lt;/b&gt;&lt;/p&gt;&lt;hr size=&quot;1&quot;&gt;&lt;div style=&quot;height:2px;&quot;&gt;&lt;/div&gt;" style="verticalAlign=top;align=left;overflow=fill;fontSize=12;fontFamily=Helvetica;html=1;whiteSpace=wrap;" parent="1" vertex="1">
          <mxGeometry x="-406.5" y="2110" width="140" height="40" as="geometry" />
        </mxCell>
        <mxCell id="_oMGjZyMMdvzyB5BD8xu-76" value="" style="rounded=0;orthogonalLoop=1;jettySize=auto;html=1;endArrow=halfCircle;endFill=0;endSize=6;strokeWidth=1;sketch=0;exitX=0.011;exitY=0.5;exitDx=0;exitDy=0;exitPerimeter=0;" parent="1" source="2ueXuzkVVdpaLfFHCJSz-5" target="_oMGjZyMMdvzyB5BD8xu-78" edge="1">
          <mxGeometry relative="1" as="geometry">
            <mxPoint y="220" as="sourcePoint" />
          </mxGeometry>
        </mxCell>
        <mxCell id="_oMGjZyMMdvzyB5BD8xu-77" value="" style="rounded=0;orthogonalLoop=1;jettySize=auto;html=1;endArrow=oval;endFill=0;sketch=0;sourcePerimeterSpacing=0;targetPerimeterSpacing=0;endSize=10;entryX=0;entryY=1;entryDx=0;entryDy=0;entryPerimeter=0;" parent="1" source="_oMGjZyMMdvzyB5BD8xu-78" target="2ueXuzkVVdpaLfFHCJSz-15" edge="1">
          <mxGeometry relative="1" as="geometry">
            <mxPoint y="175" as="sourcePoint" />
          </mxGeometry>
        </mxCell>
        <mxCell id="_oMGjZyMMdvzyB5BD8xu-79" value="" style="rounded=0;orthogonalLoop=1;jettySize=auto;html=1;endArrow=oval;endFill=0;sketch=0;sourcePerimeterSpacing=0;targetPerimeterSpacing=0;endSize=10;entryX=0;entryY=1;entryDx=0;entryDy=0;entryPerimeter=0;exitX=1;exitY=0.5;exitDx=0;exitDy=0;" parent="1" source="2ueXuzkVVdpaLfFHCJSz-3" target="_oMGjZyMMdvzyB5BD8xu-78" edge="1">
          <mxGeometry relative="1" as="geometry">
            <mxPoint y="175" as="sourcePoint" />
            <mxPoint x="45" y="305" as="targetPoint" />
          </mxGeometry>
        </mxCell>
        <mxCell id="_oMGjZyMMdvzyB5BD8xu-78" value="" style="ellipse;whiteSpace=wrap;html=1;align=center;aspect=fixed;fillColor=none;strokeColor=none;resizable=0;perimeter=centerPerimeter;rotatable=0;allowArrows=0;points=[];outlineConnect=1;" parent="1" vertex="1">
          <mxGeometry x="40" y="300" width="10" height="10" as="geometry" />
        </mxCell>
        <mxCell id="_oMGjZyMMdvzyB5BD8xu-82" value="" style="rounded=0;orthogonalLoop=1;jettySize=auto;html=1;endArrow=halfCircle;endFill=0;endSize=6;strokeWidth=1;sketch=0;exitX=0;exitY=0.5;exitDx=0;exitDy=0;" parent="1" source="2ueXuzkVVdpaLfFHCJSz-7" target="_oMGjZyMMdvzyB5BD8xu-84" edge="1">
          <mxGeometry relative="1" as="geometry">
            <mxPoint x="260" y="210" as="sourcePoint" />
          </mxGeometry>
        </mxCell>
        <mxCell id="_oMGjZyMMdvzyB5BD8xu-83" value="" style="rounded=0;orthogonalLoop=1;jettySize=auto;html=1;endArrow=oval;endFill=0;sketch=0;sourcePerimeterSpacing=0;targetPerimeterSpacing=0;endSize=10;" parent="1" source="2ueXuzkVVdpaLfFHCJSz-5" target="_oMGjZyMMdvzyB5BD8xu-84" edge="1">
          <mxGeometry relative="1" as="geometry">
            <mxPoint x="380" y="180" as="sourcePoint" />
          </mxGeometry>
        </mxCell>
        <mxCell id="_oMGjZyMMdvzyB5BD8xu-84" value="" style="ellipse;whiteSpace=wrap;html=1;align=center;aspect=fixed;fillColor=none;strokeColor=none;resizable=0;perimeter=centerPerimeter;rotatable=0;allowArrows=0;points=[];outlineConnect=1;" parent="1" vertex="1">
          <mxGeometry x="330" y="300" width="10" height="10" as="geometry" />
        </mxCell>
        <mxCell id="_oMGjZyMMdvzyB5BD8xu-85" value="" style="rounded=0;orthogonalLoop=1;jettySize=auto;html=1;endArrow=halfCircle;endFill=0;endSize=6;strokeWidth=1;sketch=0;exitX=1;exitY=0.5;exitDx=0;exitDy=0;" parent="1" source="2ueXuzkVVdpaLfFHCJSz-7" target="_oMGjZyMMdvzyB5BD8xu-87" edge="1">
          <mxGeometry relative="1" as="geometry">
            <mxPoint x="630" y="305" as="sourcePoint" />
          </mxGeometry>
        </mxCell>
        <mxCell id="_oMGjZyMMdvzyB5BD8xu-86" value="" style="rounded=0;orthogonalLoop=1;jettySize=auto;html=1;endArrow=oval;endFill=0;sketch=0;sourcePerimeterSpacing=0;targetPerimeterSpacing=0;endSize=10;exitX=0;exitY=0.5;exitDx=0;exitDy=0;" parent="1" source="2ueXuzkVVdpaLfFHCJSz-9" target="_oMGjZyMMdvzyB5BD8xu-87" edge="1">
          <mxGeometry relative="1" as="geometry">
            <mxPoint x="590" y="220" as="sourcePoint" />
          </mxGeometry>
        </mxCell>
        <mxCell id="_oMGjZyMMdvzyB5BD8xu-87" value="" style="ellipse;whiteSpace=wrap;html=1;align=center;aspect=fixed;fillColor=none;strokeColor=none;resizable=0;perimeter=centerPerimeter;rotatable=0;allowArrows=0;points=[];outlineConnect=1;" parent="1" vertex="1">
          <mxGeometry x="600" y="300" width="10" height="10" as="geometry" />
        </mxCell>
        <mxCell id="c4RW42ujXjsbXi0aV2kD-2" value="«Component»&lt;br&gt;&lt;b&gt;Database&lt;/b&gt;" style="html=1;dropTarget=0;whiteSpace=wrap;" parent="1" vertex="1">
          <mxGeometry x="100" y="90" width="180" height="90" as="geometry" />
        </mxCell>
        <mxCell id="c4RW42ujXjsbXi0aV2kD-3" value="" style="shape=module;jettyWidth=8;jettyHeight=4;" parent="c4RW42ujXjsbXi0aV2kD-2" vertex="1">
          <mxGeometry x="1" width="20" height="20" relative="1" as="geometry">
            <mxPoint x="-27" y="7" as="offset" />
          </mxGeometry>
        </mxCell>
        <mxCell id="c4RW42ujXjsbXi0aV2kD-7" value="" style="rounded=0;orthogonalLoop=1;jettySize=auto;html=1;endArrow=halfCircle;endFill=0;endSize=6;strokeWidth=1;sketch=0;exitX=0.5;exitY=0;exitDx=0;exitDy=0;" parent="1" source="2ueXuzkVVdpaLfFHCJSz-5" target="c4RW42ujXjsbXi0aV2kD-9" edge="1">
          <mxGeometry relative="1" as="geometry">
            <mxPoint x="210" y="215" as="sourcePoint" />
          </mxGeometry>
        </mxCell>
        <mxCell id="c4RW42ujXjsbXi0aV2kD-8" value="" style="rounded=0;orthogonalLoop=1;jettySize=auto;html=1;endArrow=oval;endFill=0;sketch=0;sourcePerimeterSpacing=0;targetPerimeterSpacing=0;endSize=10;exitX=0.5;exitY=1;exitDx=0;exitDy=0;" parent="1" source="c4RW42ujXjsbXi0aV2kD-2" target="c4RW42ujXjsbXi0aV2kD-9" edge="1">
          <mxGeometry relative="1" as="geometry">
            <mxPoint x="80" y="210" as="sourcePoint" />
          </mxGeometry>
        </mxCell>
        <mxCell id="c4RW42ujXjsbXi0aV2kD-9" value="" style="ellipse;whiteSpace=wrap;html=1;align=center;aspect=fixed;fillColor=none;strokeColor=none;resizable=0;perimeter=centerPerimeter;rotatable=0;allowArrows=0;points=[];outlineConnect=1;" parent="1" vertex="1">
          <mxGeometry x="185" y="210" width="10" height="10" as="geometry" />
        </mxCell>
        <mxCell id="zMEa8KZwkPsOpR2TD_1f-1" value="&lt;p style=&quot;margin:0px;margin-top:4px;text-align:center;&quot;&gt;&lt;b&gt;TimeRecordService&lt;/b&gt;&lt;/p&gt;&lt;hr size=&quot;1&quot;&gt;&lt;div style=&quot;height:2px;&quot;&gt;&lt;/div&gt;" style="verticalAlign=top;align=left;overflow=fill;fontSize=12;fontFamily=Helvetica;html=1;whiteSpace=wrap;" parent="1" vertex="1">
          <mxGeometry x="-571" y="2300" width="140" height="40" as="geometry" />
        </mxCell>
        <mxCell id="YkOPoZIDvHqunzeJs5bv-8" value="&lt;p style=&quot;margin:0px;margin-top:4px;text-align:center;&quot;&gt;&lt;b&gt;LimitService&lt;/b&gt;&lt;/p&gt;&lt;hr size=&quot;1&quot;&gt;&lt;div style=&quot;height:2px;&quot;&gt;&lt;/div&gt;" style="verticalAlign=top;align=left;overflow=fill;fontSize=12;fontFamily=Helvetica;html=1;whiteSpace=wrap;" parent="1" vertex="1">
          <mxGeometry x="-366" y="2590" width="140" height="40" as="geometry" />
        </mxCell>
        <mxCell id="YkOPoZIDvHqunzeJs5bv-11" style="edgeStyle=orthogonalEdgeStyle;rounded=0;orthogonalLoop=1;jettySize=auto;html=1;exitX=0.25;exitY=1;exitDx=0;exitDy=0;" parent="1" source="YkOPoZIDvHqunzeJs5bv-10" target="_oMGjZyMMdvzyB5BD8xu-66" edge="1">
          <mxGeometry relative="1" as="geometry" />
        </mxCell>
        <mxCell id="YkOPoZIDvHqunzeJs5bv-12" style="edgeStyle=orthogonalEdgeStyle;rounded=0;orthogonalLoop=1;jettySize=auto;html=1;exitX=0.75;exitY=1;exitDx=0;exitDy=0;entryX=0.5;entryY=0;entryDx=0;entryDy=0;" parent="1" source="YkOPoZIDvHqunzeJs5bv-10" target="_oMGjZyMMdvzyB5BD8xu-67" edge="1">
          <mxGeometry relative="1" as="geometry" />
        </mxCell>
        <mxCell id="YkOPoZIDvHqunzeJs5bv-10" value="&lt;p style=&quot;margin:0px;margin-top:4px;text-align:center;&quot;&gt;&lt;b&gt;TimeRecordService&lt;/b&gt;&lt;/p&gt;&lt;hr size=&quot;1&quot;&gt;&lt;div style=&quot;height:2px;&quot;&gt;&lt;/div&gt;" style="verticalAlign=top;align=left;overflow=fill;fontSize=12;fontFamily=Helvetica;html=1;whiteSpace=wrap;" parent="1" vertex="1">
          <mxGeometry x="-519" y="2000" width="140" height="40" as="geometry" />
        </mxCell>
        <mxCell id="YkOPoZIDvHqunzeJs5bv-13" value="«Component»&lt;br&gt;&lt;b&gt;TimeTracking&lt;/b&gt;" style="html=1;dropTarget=0;whiteSpace=wrap;" parent="1" vertex="1">
          <mxGeometry x="-610" y="1613" width="180" height="90" as="geometry" />
        </mxCell>
        <mxCell id="YkOPoZIDvHqunzeJs5bv-14" value="" style="shape=module;jettyWidth=8;jettyHeight=4;" parent="YkOPoZIDvHqunzeJs5bv-13" vertex="1">
          <mxGeometry x="1" width="20" height="20" relative="1" as="geometry">
            <mxPoint x="-27" y="7" as="offset" />
          </mxGeometry>
        </mxCell>
        <mxCell id="YkOPoZIDvHqunzeJs5bv-16" style="edgeStyle=orthogonalEdgeStyle;rounded=0;orthogonalLoop=1;jettySize=auto;html=1;exitX=0.5;exitY=0;exitDx=0;exitDy=0;entryX=0.5;entryY=1;entryDx=0;entryDy=0;" parent="1" source="YkOPoZIDvHqunzeJs5bv-15" target="_oMGjZyMMdvzyB5BD8xu-44" edge="1">
          <mxGeometry relative="1" as="geometry" />
        </mxCell>
        <mxCell id="YkOPoZIDvHqunzeJs5bv-15" value="&lt;p style=&quot;margin:0px;margin-top:4px;text-align:center;&quot;&gt;&lt;b&gt;UserService&lt;/b&gt;&lt;/p&gt;&lt;hr size=&quot;1&quot;&gt;&lt;div style=&quot;height:2px;&quot;&gt;&lt;/div&gt;" style="verticalAlign=top;align=left;overflow=fill;fontSize=12;fontFamily=Helvetica;html=1;whiteSpace=wrap;" parent="1" vertex="1">
          <mxGeometry x="-571" y="2590" width="140" height="40" as="geometry" />
        </mxCell>
        <mxCell id="YkOPoZIDvHqunzeJs5bv-24" value="&lt;p style=&quot;margin:0px;margin-top:4px;text-align:center;&quot;&gt;&lt;b&gt;EmailService&lt;/b&gt;&lt;/p&gt;&lt;hr size=&quot;1&quot;&gt;&lt;div style=&quot;height:2px;&quot;&gt;&lt;/div&gt;" style="verticalAlign=top;align=left;overflow=fill;fontSize=12;fontFamily=Helvetica;html=1;whiteSpace=wrap;" parent="1" vertex="1">
          <mxGeometry x="-876" y="1760" width="140" height="40" as="geometry" />
        </mxCell>
        <mxCell id="YkOPoZIDvHqunzeJs5bv-25" value="&lt;p style=&quot;margin:0px;margin-top:4px;text-align:center;&quot;&gt;&lt;b&gt;LogService&lt;/b&gt;&lt;/p&gt;&lt;hr size=&quot;1&quot;&gt;&lt;div style=&quot;height:2px;&quot;&gt;&lt;/div&gt;" style="verticalAlign=top;align=left;overflow=fill;fontSize=12;fontFamily=Helvetica;html=1;whiteSpace=wrap;" parent="1" vertex="1">
          <mxGeometry x="-589" y="1760" width="140" height="40" as="geometry" />
        </mxCell>
        <mxCell id="YkOPoZIDvHqunzeJs5bv-28" style="edgeStyle=orthogonalEdgeStyle;rounded=0;orthogonalLoop=1;jettySize=auto;html=1;" parent="1" source="YkOPoZIDvHqunzeJs5bv-27" target="YkOPoZIDvHqunzeJs5bv-10" edge="1">
          <mxGeometry relative="1" as="geometry" />
        </mxCell>
        <mxCell id="YkOPoZIDvHqunzeJs5bv-27" value="&lt;p style=&quot;margin:0px;margin-top:4px;text-align:center;&quot;&gt;&lt;b&gt;WarningService&lt;/b&gt;&lt;/p&gt;&lt;hr size=&quot;1&quot;&gt;&lt;div style=&quot;height:2px;&quot;&gt;&lt;/div&gt;" style="verticalAlign=top;align=left;overflow=fill;fontSize=12;fontFamily=Helvetica;html=1;whiteSpace=wrap;" parent="1" vertex="1">
          <mxGeometry x="-270" y="2000" width="95" height="40" as="geometry" />
        </mxCell>
        <mxCell id="YkOPoZIDvHqunzeJs5bv-31" value="" style="edgeStyle=orthogonalEdgeStyle;rounded=0;orthogonalLoop=1;jettySize=auto;html=1;" parent="1" source="YkOPoZIDvHqunzeJs5bv-30" target="_oMGjZyMMdvzyB5BD8xu-53" edge="1">
          <mxGeometry relative="1" as="geometry" />
        </mxCell>
        <mxCell id="YkOPoZIDvHqunzeJs5bv-30" value="&lt;p style=&quot;margin:0px;margin-top:4px;text-align:center;&quot;&gt;&lt;b&gt;ClimateMeasurementService&lt;/b&gt;&lt;/p&gt;&lt;hr size=&quot;1&quot;&gt;&lt;div style=&quot;height:2px;&quot;&gt;&lt;/div&gt;" style="verticalAlign=top;align=left;overflow=fill;fontSize=12;fontFamily=Helvetica;html=1;whiteSpace=wrap;" parent="1" vertex="1">
          <mxGeometry x="-1360" y="2560" width="170" height="40" as="geometry" />
        </mxCell>
        <mxCell id="YkOPoZIDvHqunzeJs5bv-62" style="edgeStyle=orthogonalEdgeStyle;rounded=0;orthogonalLoop=1;jettySize=auto;html=1;exitX=0;exitY=0.25;exitDx=0;exitDy=0;entryX=1;entryY=0.5;entryDx=0;entryDy=0;" parent="1" source="YkOPoZIDvHqunzeJs5bv-54" target="YkOPoZIDvHqunzeJs5bv-59" edge="1">
          <mxGeometry relative="1" as="geometry">
            <Array as="points">
              <mxPoint x="-940" y="1636" />
              <mxPoint x="-940" y="1530" />
            </Array>
          </mxGeometry>
        </mxCell>
        <mxCell id="YkOPoZIDvHqunzeJs5bv-70" style="edgeStyle=orthogonalEdgeStyle;rounded=0;orthogonalLoop=1;jettySize=auto;html=1;exitX=0.5;exitY=1;exitDx=0;exitDy=0;entryX=0.5;entryY=0;entryDx=0;entryDy=0;" parent="1" source="YkOPoZIDvHqunzeJs5bv-54" target="YkOPoZIDvHqunzeJs5bv-24" edge="1">
          <mxGeometry relative="1" as="geometry" />
        </mxCell>
        <mxCell id="gzyNK9viBYhCswy4ixau-1" style="edgeStyle=orthogonalEdgeStyle;rounded=0;orthogonalLoop=1;jettySize=auto;html=1;exitX=0;exitY=0.75;exitDx=0;exitDy=0;entryX=0.75;entryY=0;entryDx=0;entryDy=0;" parent="1" source="YkOPoZIDvHqunzeJs5bv-54" target="YkOPoZIDvHqunzeJs5bv-71" edge="1">
          <mxGeometry relative="1" as="geometry" />
        </mxCell>
        <mxCell id="gzyNK9viBYhCswy4ixau-3" style="edgeStyle=orthogonalEdgeStyle;rounded=0;orthogonalLoop=1;jettySize=auto;html=1;exitX=0.75;exitY=0;exitDx=0;exitDy=0;entryX=0.5;entryY=1;entryDx=0;entryDy=0;startArrow=classic;startFill=1;" parent="1" source="YkOPoZIDvHqunzeJs5bv-54" target="_oMGjZyMMdvzyB5BD8xu-39" edge="1">
          <mxGeometry relative="1" as="geometry" />
        </mxCell>
        <mxCell id="YkOPoZIDvHqunzeJs5bv-54" value="«Component»&lt;br&gt;&lt;b&gt;Notifications&lt;/b&gt;" style="html=1;dropTarget=0;whiteSpace=wrap;" parent="1" vertex="1">
          <mxGeometry x="-896" y="1613" width="180" height="90" as="geometry" />
        </mxCell>
        <mxCell id="YkOPoZIDvHqunzeJs5bv-55" value="" style="shape=module;jettyWidth=8;jettyHeight=4;" parent="YkOPoZIDvHqunzeJs5bv-54" vertex="1">
          <mxGeometry x="1" width="20" height="20" relative="1" as="geometry">
            <mxPoint x="-27" y="7" as="offset" />
          </mxGeometry>
        </mxCell>
        <mxCell id="YkOPoZIDvHqunzeJs5bv-59" value="&lt;p style=&quot;margin:0px;margin-top:4px;text-align:center;&quot;&gt;&lt;b&gt;TemperaDeviceService&lt;/b&gt;&lt;/p&gt;&lt;hr size=&quot;1&quot;&gt;&lt;div style=&quot;height:2px;&quot;&gt;&lt;/div&gt;" style="verticalAlign=top;align=left;overflow=fill;fontSize=12;fontFamily=Helvetica;html=1;whiteSpace=wrap;" parent="1" vertex="1">
          <mxGeometry x="-1140" y="1510" width="140" height="40" as="geometry" />
        </mxCell>
        <mxCell id="YkOPoZIDvHqunzeJs5bv-71" value="&lt;p style=&quot;margin:0px;margin-top:4px;text-align:center;&quot;&gt;&lt;b&gt;AccessPointService&lt;/b&gt;&lt;/p&gt;&lt;hr size=&quot;1&quot;&gt;&lt;div style=&quot;height:2px;&quot;&gt;&lt;/div&gt;" style="verticalAlign=top;align=left;overflow=fill;fontSize=12;fontFamily=Helvetica;html=1;whiteSpace=wrap;" parent="1" vertex="1">
          <mxGeometry x="-1140" y="1760" width="140" height="40" as="geometry" />
        </mxCell>
        <mxCell id="YkOPoZIDvHqunzeJs5bv-73" value="«Component»&lt;br&gt;&lt;div style=&quot;text-align: center;&quot;&gt;&lt;b style=&quot;background-color: initial;&quot;&gt;Warning Notification&lt;/b&gt;&lt;/div&gt;" style="html=1;dropTarget=0;whiteSpace=wrap;align=left;" parent="1" vertex="1">
          <mxGeometry x="-800" y="2454" width="90" height="54" as="geometry" />
        </mxCell>
        <mxCell id="YkOPoZIDvHqunzeJs5bv-74" value="" style="shape=module;jettyWidth=8;jettyHeight=4;" parent="YkOPoZIDvHqunzeJs5bv-73" vertex="1">
          <mxGeometry x="1" width="20" height="20" relative="1" as="geometry">
            <mxPoint x="-13" y="-5" as="offset" />
          </mxGeometry>
        </mxCell>
        <mxCell id="Hp-tHnCCIb6oYQoeNh2Z-1" value="Rest&lt;div&gt;Controller&lt;/div&gt;" style="text;html=1;align=center;verticalAlign=middle;whiteSpace=wrap;rounded=0;" parent="1" vertex="1">
          <mxGeometry x="310" y="314" width="60" height="30" as="geometry" />
        </mxCell>
        <mxCell id="FKabuTJ_VJepuQq_GGoa-6" style="edgeStyle=orthogonalEdgeStyle;rounded=0;orthogonalLoop=1;jettySize=auto;html=1;exitX=0.5;exitY=0;exitDx=0;exitDy=0;entryX=0.25;entryY=1;entryDx=0;entryDy=0;" parent="1" source="FKabuTJ_VJepuQq_GGoa-4" target="_oMGjZyMMdvzyB5BD8xu-44" edge="1">
          <mxGeometry relative="1" as="geometry">
            <Array as="points">
              <mxPoint x="-651" y="2540" />
              <mxPoint x="-536" y="2540" />
            </Array>
          </mxGeometry>
        </mxCell>
        <mxCell id="FKabuTJ_VJepuQq_GGoa-4" value="&lt;p style=&quot;margin:0px;margin-top:4px;text-align:center;&quot;&gt;&lt;b&gt;NotificationService&lt;/b&gt;&lt;/p&gt;&lt;hr size=&quot;1&quot;&gt;&lt;div style=&quot;height:2px;&quot;&gt;&lt;/div&gt;" style="verticalAlign=top;align=left;overflow=fill;fontSize=12;fontFamily=Helvetica;html=1;whiteSpace=wrap;" parent="1" vertex="1">
          <mxGeometry x="-721" y="2590" width="140" height="40" as="geometry" />
        </mxCell>
        <mxCell id="3sdmv42JOEyx_dQ0K7hA-3" style="edgeStyle=orthogonalEdgeStyle;rounded=0;orthogonalLoop=1;jettySize=auto;html=1;exitX=1;exitY=0.25;exitDx=0;exitDy=0;entryX=0;entryY=0.75;entryDx=0;entryDy=0;" parent="1" source="3sdmv42JOEyx_dQ0K7hA-1" target="2ueXuzkVVdpaLfFHCJSz-37" edge="1">
          <mxGeometry relative="1" as="geometry" />
        </mxCell>
        <mxCell id="3sdmv42JOEyx_dQ0K7hA-4" style="edgeStyle=orthogonalEdgeStyle;rounded=0;orthogonalLoop=1;jettySize=auto;html=1;exitX=1;exitY=0.5;exitDx=0;exitDy=0;entryX=0;entryY=0.5;entryDx=0;entryDy=0;" parent="1" source="3sdmv42JOEyx_dQ0K7hA-1" target="2ueXuzkVVdpaLfFHCJSz-35" edge="1">
          <mxGeometry relative="1" as="geometry" />
        </mxCell>
        <mxCell id="3sdmv42JOEyx_dQ0K7hA-1" value="«Component»&lt;br&gt;&lt;b&gt;auditing&lt;/b&gt;" style="html=1;dropTarget=0;whiteSpace=wrap;" parent="1" vertex="1">
          <mxGeometry x="-160" y="860" width="180" height="90" as="geometry" />
        </mxCell>
        <mxCell id="3sdmv42JOEyx_dQ0K7hA-2" value="" style="shape=module;jettyWidth=8;jettyHeight=4;" parent="3sdmv42JOEyx_dQ0K7hA-1" vertex="1">
          <mxGeometry x="1" width="20" height="20" relative="1" as="geometry">
            <mxPoint x="-27" y="7" as="offset" />
          </mxGeometry>
        </mxCell>
        <mxCell id="gzyNK9viBYhCswy4ixau-4" value="Notifications" style="shape=umlFrame;whiteSpace=wrap;html=1;pointerEvents=0;width=120;height=50;" parent="1" vertex="1">
          <mxGeometry x="-1460" y="1980.5" width="730" height="290" as="geometry" />
        </mxCell>
        <mxCell id="gzyNK9viBYhCswy4ixau-6" style="edgeStyle=orthogonalEdgeStyle;rounded=0;orthogonalLoop=1;jettySize=auto;html=1;exitX=0.25;exitY=1;exitDx=0;exitDy=0;" parent="1" source="gzyNK9viBYhCswy4ixau-21" target="gzyNK9viBYhCswy4ixau-15" edge="1">
          <mxGeometry relative="1" as="geometry">
            <Array as="points">
              <mxPoint x="-1132" y="2129.5" />
              <mxPoint x="-1132" y="2129.5" />
            </Array>
          </mxGeometry>
        </mxCell>
        <mxCell id="gzyNK9viBYhCswy4ixau-7" style="edgeStyle=orthogonalEdgeStyle;rounded=0;orthogonalLoop=1;jettySize=auto;html=1;entryX=0.25;entryY=0;entryDx=0;entryDy=0;" parent="1" source="gzyNK9viBYhCswy4ixau-21" target="gzyNK9viBYhCswy4ixau-12" edge="1">
          <mxGeometry relative="1" as="geometry">
            <Array as="points">
              <mxPoint x="-1045" y="2113.5" />
            </Array>
          </mxGeometry>
        </mxCell>
        <mxCell id="gzyNK9viBYhCswy4ixau-48" style="edgeStyle=orthogonalEdgeStyle;rounded=0;orthogonalLoop=1;jettySize=auto;html=1;exitX=0.25;exitY=1;exitDx=0;exitDy=0;entryX=0.25;entryY=0;entryDx=0;entryDy=0;" parent="1" source="gzyNK9viBYhCswy4ixau-8" target="gzyNK9viBYhCswy4ixau-9" edge="1">
          <mxGeometry relative="1" as="geometry">
            <Array as="points">
              <mxPoint x="-1127" y="2040" />
              <mxPoint x="-1381" y="2040" />
            </Array>
          </mxGeometry>
        </mxCell>
        <mxCell id="gzyNK9viBYhCswy4ixau-8" value="&lt;p style=&quot;margin:0px;margin-top:4px;text-align:center;&quot;&gt;&lt;b&gt;WarningService&lt;/b&gt;&lt;/p&gt;&lt;hr size=&quot;1&quot;&gt;&lt;div style=&quot;height:2px;&quot;&gt;&lt;/div&gt;" style="verticalAlign=top;align=left;overflow=fill;fontSize=12;fontFamily=Helvetica;html=1;whiteSpace=wrap;" parent="1" vertex="1">
          <mxGeometry x="-1162" y="1969.5" width="140" height="40" as="geometry" />
        </mxCell>
        <mxCell id="gzyNK9viBYhCswy4ixau-9" value="&lt;p style=&quot;margin:0px;margin-top:4px;text-align:center;&quot;&gt;&lt;b&gt;TokenService&lt;/b&gt;&lt;/p&gt;&lt;hr size=&quot;1&quot;&gt;&lt;div style=&quot;height:2px;&quot;&gt;&lt;/div&gt;" style="verticalAlign=top;align=left;overflow=fill;fontSize=12;fontFamily=Helvetica;html=1;whiteSpace=wrap;" parent="1" vertex="1">
          <mxGeometry x="-1414" y="2139.5" width="130" height="50" as="geometry" />
        </mxCell>
        <mxCell id="gzyNK9viBYhCswy4ixau-10" value="" style="edgeStyle=orthogonalEdgeStyle;rounded=0;orthogonalLoop=1;jettySize=auto;html=1;" parent="1" source="gzyNK9viBYhCswy4ixau-12" target="gzyNK9viBYhCswy4ixau-16" edge="1">
          <mxGeometry relative="1" as="geometry" />
        </mxCell>
        <mxCell id="gzyNK9viBYhCswy4ixau-11" style="edgeStyle=orthogonalEdgeStyle;rounded=0;orthogonalLoop=1;jettySize=auto;html=1;exitX=0.75;exitY=1;exitDx=0;exitDy=0;entryX=0.5;entryY=0;entryDx=0;entryDy=0;" parent="1" source="gzyNK9viBYhCswy4ixau-12" target="gzyNK9viBYhCswy4ixau-19" edge="1">
          <mxGeometry relative="1" as="geometry" />
        </mxCell>
        <mxCell id="gzyNK9viBYhCswy4ixau-12" value="&lt;p style=&quot;margin:0px;margin-top:4px;text-align:center;&quot;&gt;&lt;b&gt;EmailNotificationListener&lt;/b&gt;&lt;/p&gt;&lt;hr size=&quot;1&quot;&gt;&lt;div style=&quot;height:2px;&quot;&gt;&lt;/div&gt;" style="verticalAlign=top;align=left;overflow=fill;fontSize=12;fontFamily=Helvetica;html=1;whiteSpace=wrap;" parent="1" vertex="1">
          <mxGeometry x="-1083" y="2138.5" width="150" height="50" as="geometry" />
        </mxCell>
        <mxCell id="gzyNK9viBYhCswy4ixau-13" style="edgeStyle=orthogonalEdgeStyle;rounded=0;orthogonalLoop=1;jettySize=auto;html=1;exitX=0.5;exitY=1;exitDx=0;exitDy=0;entryX=0.25;entryY=0;entryDx=0;entryDy=0;" parent="1" source="gzyNK9viBYhCswy4ixau-15" target="gzyNK9viBYhCswy4ixau-16" edge="1">
          <mxGeometry relative="1" as="geometry">
            <mxPoint x="-1149.5" y="2160.5" as="sourcePoint" />
            <mxPoint x="-1175.25" y="2250.5" as="targetPoint" />
          </mxGeometry>
        </mxCell>
        <mxCell id="gzyNK9viBYhCswy4ixau-51" style="edgeStyle=orthogonalEdgeStyle;rounded=0;orthogonalLoop=1;jettySize=auto;html=1;exitX=0.5;exitY=0;exitDx=0;exitDy=0;entryX=0.75;entryY=0;entryDx=0;entryDy=0;" parent="1" source="gzyNK9viBYhCswy4ixau-15" target="gzyNK9viBYhCswy4ixau-41" edge="1">
          <mxGeometry relative="1" as="geometry">
            <Array as="points">
              <mxPoint x="-1188" y="2100" />
              <mxPoint x="-807" y="2100" />
            </Array>
          </mxGeometry>
        </mxCell>
        <mxCell id="gzyNK9viBYhCswy4ixau-15" value="&lt;p style=&quot;margin:0px;margin-top:4px;text-align:center;&quot;&gt;&lt;b&gt;ListNotificationListener&lt;/b&gt;&lt;/p&gt;&lt;hr size=&quot;1&quot;&gt;&lt;div style=&quot;height:2px;&quot;&gt;&lt;/div&gt;" style="verticalAlign=top;align=left;overflow=fill;fontSize=12;fontFamily=Helvetica;html=1;whiteSpace=wrap;" parent="1" vertex="1">
          <mxGeometry x="-1263" y="2138.5" width="150" height="50" as="geometry" />
        </mxCell>
        <mxCell id="gzyNK9viBYhCswy4ixau-16" value="&lt;p style=&quot;margin:0px;margin-top:4px;text-align:center;&quot;&gt;&lt;b&gt;TemperaService&lt;/b&gt;&lt;/p&gt;&lt;hr size=&quot;1&quot;&gt;&lt;div style=&quot;height:2px;&quot;&gt;&lt;/div&gt;" style="verticalAlign=top;align=left;overflow=fill;fontSize=12;fontFamily=Helvetica;html=1;whiteSpace=wrap;" parent="1" vertex="1">
          <mxGeometry x="-1160" y="2250.5" width="113" height="40" as="geometry" />
        </mxCell>
        <mxCell id="gzyNK9viBYhCswy4ixau-19" value="&lt;p style=&quot;margin:0px;margin-top:4px;text-align:center;&quot;&gt;&lt;b&gt;EmailService&lt;/b&gt;&lt;/p&gt;&lt;hr size=&quot;1&quot;&gt;&lt;div style=&quot;height:2px;&quot;&gt;&lt;/div&gt;" style="verticalAlign=top;align=left;overflow=fill;fontSize=12;fontFamily=Helvetica;html=1;whiteSpace=wrap;" parent="1" vertex="1">
          <mxGeometry x="-993" y="2250.5" width="113" height="40" as="geometry" />
        </mxCell>
        <mxCell id="gzyNK9viBYhCswy4ixau-20" value="" style="edgeStyle=orthogonalEdgeStyle;rounded=0;orthogonalLoop=1;jettySize=auto;html=1;exitX=0.5;exitY=1;exitDx=0;exitDy=0;entryX=0.5;entryY=0;entryDx=0;entryDy=0;" parent="1" source="gzyNK9viBYhCswy4ixau-8" target="gzyNK9viBYhCswy4ixau-21" edge="1">
          <mxGeometry relative="1" as="geometry">
            <mxPoint x="-1014" y="2009.5" as="sourcePoint" />
            <mxPoint x="-970" y="2138.5" as="targetPoint" />
            <Array as="points" />
          </mxGeometry>
        </mxCell>
        <mxCell id="gzyNK9viBYhCswy4ixau-21" value="&lt;p style=&quot;margin:0px;margin-top:4px;text-align:center;&quot;&gt;&lt;b&gt;ApplicationEventPublisher&lt;/b&gt;&lt;/p&gt;&lt;hr size=&quot;1&quot;&gt;&lt;div style=&quot;height:2px;&quot;&gt;&lt;/div&gt;" style="verticalAlign=top;align=left;overflow=fill;fontSize=12;fontFamily=Helvetica;html=1;whiteSpace=wrap;" parent="1" vertex="1">
          <mxGeometry x="-1172" y="2049.5" width="160" height="40" as="geometry" />
        </mxCell>
        <mxCell id="gzyNK9viBYhCswy4ixau-43" style="edgeStyle=orthogonalEdgeStyle;rounded=0;orthogonalLoop=1;jettySize=auto;html=1;exitX=0.5;exitY=1;exitDx=0;exitDy=0;entryX=0.75;entryY=0;entryDx=0;entryDy=0;" parent="1" source="gzyNK9viBYhCswy4ixau-41" target="gzyNK9viBYhCswy4ixau-16" edge="1">
          <mxGeometry relative="1" as="geometry">
            <Array as="points">
              <mxPoint x="-845" y="2230" />
              <mxPoint x="-1075" y="2230" />
            </Array>
          </mxGeometry>
        </mxCell>
        <mxCell id="gzyNK9viBYhCswy4ixau-44" style="edgeStyle=orthogonalEdgeStyle;rounded=0;orthogonalLoop=1;jettySize=auto;html=1;exitX=0.5;exitY=0;exitDx=0;exitDy=0;entryX=0.5;entryY=1;entryDx=0;entryDy=0;" parent="1" source="gzyNK9viBYhCswy4ixau-41" target="gzyNK9viBYhCswy4ixau-42" edge="1">
          <mxGeometry relative="1" as="geometry" />
        </mxCell>
        <mxCell id="gzyNK9viBYhCswy4ixau-46" style="edgeStyle=orthogonalEdgeStyle;rounded=0;orthogonalLoop=1;jettySize=auto;html=1;exitX=0.5;exitY=1;exitDx=0;exitDy=0;entryX=0.5;entryY=0;entryDx=0;entryDy=0;" parent="1" source="gzyNK9viBYhCswy4ixau-41" target="gzyNK9viBYhCswy4ixau-45" edge="1">
          <mxGeometry relative="1" as="geometry">
            <Array as="points">
              <mxPoint x="-845" y="2230" />
              <mxPoint x="-787" y="2230" />
            </Array>
          </mxGeometry>
        </mxCell>
        <mxCell id="gzyNK9viBYhCswy4ixau-49" style="edgeStyle=orthogonalEdgeStyle;rounded=0;orthogonalLoop=1;jettySize=auto;html=1;exitX=0.25;exitY=0;exitDx=0;exitDy=0;entryX=0.75;entryY=0;entryDx=0;entryDy=0;" parent="1" source="gzyNK9viBYhCswy4ixau-41" target="gzyNK9viBYhCswy4ixau-9" edge="1">
          <mxGeometry relative="1" as="geometry" />
        </mxCell>
        <mxCell id="gzyNK9viBYhCswy4ixau-50" style="edgeStyle=orthogonalEdgeStyle;rounded=0;orthogonalLoop=1;jettySize=auto;html=1;exitX=0.25;exitY=0;exitDx=0;exitDy=0;entryX=0.75;entryY=1;entryDx=0;entryDy=0;" parent="1" source="gzyNK9viBYhCswy4ixau-41" target="gzyNK9viBYhCswy4ixau-8" edge="1">
          <mxGeometry relative="1" as="geometry">
            <Array as="points">
              <mxPoint x="-883" y="2030" />
              <mxPoint x="-1057" y="2030" />
            </Array>
          </mxGeometry>
        </mxCell>
        <mxCell id="gzyNK9viBYhCswy4ixau-41" value="&lt;p style=&quot;margin:0px;margin-top:4px;text-align:center;&quot;&gt;&lt;b&gt;NotificationService&lt;/b&gt;&lt;/p&gt;&lt;hr size=&quot;1&quot;&gt;&lt;div style=&quot;height:2px;&quot;&gt;&lt;/div&gt;" style="verticalAlign=top;align=left;overflow=fill;fontSize=12;fontFamily=Helvetica;html=1;whiteSpace=wrap;" parent="1" vertex="1">
          <mxGeometry x="-920" y="2138.5" width="150" height="50" as="geometry" />
        </mxCell>
        <mxCell id="gzyNK9viBYhCswy4ixau-42" value="&lt;p style=&quot;margin:0px;margin-top:4px;text-align:center;&quot;&gt;&lt;b&gt;AccessPointService&lt;/b&gt;&lt;/p&gt;&lt;hr size=&quot;1&quot;&gt;&lt;div style=&quot;height:2px;&quot;&gt;&lt;/div&gt;" style="verticalAlign=top;align=left;overflow=fill;fontSize=12;fontFamily=Helvetica;html=1;whiteSpace=wrap;" parent="1" vertex="1">
          <mxGeometry x="-920" y="1960" width="150" height="50" as="geometry" />
        </mxCell>
        <mxCell id="gzyNK9viBYhCswy4ixau-45" value="&lt;p style=&quot;margin:0px;margin-top:4px;text-align:center;&quot;&gt;&lt;b&gt;UserService&lt;/b&gt;&lt;/p&gt;&lt;hr size=&quot;1&quot;&gt;&lt;div style=&quot;height:2px;&quot;&gt;&lt;/div&gt;" style="verticalAlign=top;align=left;overflow=fill;fontSize=12;fontFamily=Helvetica;html=1;whiteSpace=wrap;" parent="1" vertex="1">
          <mxGeometry x="-843" y="2250.5" width="113" height="40" as="geometry" />
        </mxCell>
      </root>
    </mxGraphModel>
  </diagram>
</mxfile>
